<?xml version="1.0" encoding="UTF-8" standalone="no"?>
<!-- Created with Inkscape (http://www.inkscape.org/) -->

<svg
   xmlns:dc="http://purl.org/dc/elements/1.1/"
   xmlns:cc="http://creativecommons.org/ns#"
   xmlns:rdf="http://www.w3.org/1999/02/22-rdf-syntax-ns#"
   xmlns:svg="http://www.w3.org/2000/svg"
   xmlns="http://www.w3.org/2000/svg"
   xmlns:xlink="http://www.w3.org/1999/xlink"
   xmlns:sodipodi="http://sodipodi.sourceforge.net/DTD/sodipodi-0.dtd"
   xmlns:inkscape="http://www.inkscape.org/namespaces/inkscape"
   width="210mm"
   height="297mm"
   viewBox="0 0 210 297"
   version="1.1"
   id="svg8"
   inkscape:version="0.92.5 (2060ec1f9f, 2020-04-08)"
   sodipodi:docname="explanationMovingAverages.svg">
  <defs
     id="defs2">
    <linearGradient
       inkscape:collect="always"
       id="linearGradient1193">
      <stop
         style="stop-color:#000000;stop-opacity:1;"
         offset="0"
         id="stop1189" />
      <stop
         style="stop-color:#000000;stop-opacity:0;"
         offset="1"
         id="stop1191" />
    </linearGradient>
    <marker
       inkscape:stockid="Arrow2Lend"
       orient="auto"
       refY="0.0"
       refX="0.0"
       id="marker1107"
       style="overflow:visible;"
       inkscape:isstock="true">
      <path
         id="path1105"
         style="fill-rule:evenodd;stroke-width:0.625;stroke-linejoin:round;stroke:#000000;stroke-opacity:1;fill:#000000;fill-opacity:1"
         d="M 8.7185878,4.0337352 L -2.2072895,0.016013256 L 8.7185884,-4.0017078 C 6.9730900,-1.6296469 6.9831476,1.6157441 8.7185878,4.0337352 z "
         transform="scale(1.1) rotate(180) translate(1,0)" />
    </marker>
    <marker
       inkscape:stockid="Arrow2Lend"
       orient="auto"
       refY="0.0"
       refX="0.0"
       id="Arrow2Lend"
       style="overflow:visible;"
       inkscape:isstock="true">
      <path
         id="path842"
         style="fill-rule:evenodd;stroke-width:0.625;stroke-linejoin:round;stroke:#000000;stroke-opacity:1;fill:#000000;fill-opacity:1"
         d="M 8.7185878,4.0337352 L -2.2072895,0.016013256 L 8.7185884,-4.0017078 C 6.9730900,-1.6296469 6.9831476,1.6157441 8.7185878,4.0337352 z "
         transform="scale(1.1) rotate(180) translate(1,0)" />
    </marker>
    <linearGradient
       inkscape:collect="always"
       xlink:href="#linearGradient1193"
       id="linearGradient1195"
       x1="39.6875"
       y1="40.354168"
       x2="39.6875"
       y2="23.15625"
       gradientUnits="userSpaceOnUse" />
    <linearGradient
       inkscape:collect="always"
       xlink:href="#linearGradient1193"
       id="linearGradient1197"
       x1="87.3125"
       y1="40.354168"
       x2="87.3125"
       y2="23.15625"
       gradientUnits="userSpaceOnUse" />
    <linearGradient
       inkscape:collect="always"
       xlink:href="#linearGradient1193"
       id="linearGradient1199"
       x1="63.5"
       y1="40.354168"
       x2="63.5"
       y2="23.15625"
       gradientUnits="userSpaceOnUse" />
  </defs>
  <sodipodi:namedview
     id="base"
     pagecolor="#ffffff"
     bordercolor="#666666"
     borderopacity="1.0"
     inkscape:pageopacity="0.0"
     inkscape:pageshadow="2"
     inkscape:zoom="1.0381746"
     inkscape:cx="152.19019"
     inkscape:cy="967.09187"
     inkscape:document-units="mm"
     inkscape:current-layer="layer1"
     showgrid="false"
     inkscape:window-width="1366"
     inkscape:window-height="699"
     inkscape:window-x="0"
     inkscape:window-y="0"
     inkscape:window-maximized="1">
    <inkscape:grid
       type="xygrid"
       id="grid817" />
  </sodipodi:namedview>
  <metadata
     id="metadata5">
    <rdf:RDF>
      <cc:Work
         rdf:about="">
        <dc:format>image/svg+xml</dc:format>
        <dc:type
           rdf:resource="http://purl.org/dc/dcmitype/StillImage" />
        <dc:title></dc:title>
      </cc:Work>
    </rdf:RDF>
  </metadata>
  <g
     inkscape:label="Layer 1"
     inkscape:groupmode="layer"
     id="layer1">
    <path
       style="fill:none;stroke:#000000;stroke-width:0.265;stroke-linecap:butt;stroke-linejoin:miter;stroke-opacity:1;stroke-miterlimit:4;stroke-dasharray:none;marker-end:url(#Arrow2Lend)"
       d="M 21.166666,58.875001 H 95.249999"
       id="path819"
       inkscape:connector-curvature="0" />
    <path
       style="fill:none;stroke:#000000;stroke-width:0.26458332px;stroke-linecap:butt;stroke-linejoin:miter;stroke-opacity:1;marker-end:url(#marker1107)"
       d="M 21.166666,58.875001 V 13.895833"
       id="path1103"
       inkscape:connector-curvature="0" />
    <path
       style="fill:none;stroke:#000000;stroke-width:0.26458332px;stroke-linecap:butt;stroke-linejoin:miter;stroke-opacity:1"
       d="m 23.8125,16.541666 c -0.08135,0.565592 0.27837,0.08938 0.377976,0.188988 0.0803,0.0803 0.120847,0.192628 0.188988,0.283482 0.02673,0.03564 0.07457,0.05465 0.09449,0.09449 0.01409,0.02817 0,0.063 0,0.09449 0,0.09445 -0.02021,0.391627 0,0.472471 0.104455,0.417818 0.09449,0.150845 0.09449,0.377976 0,0.02245 -0.01059,0.356797 0,0.377976 0.01992,0.03984 0.04995,0.09449 0.09449,0.09449 0.07043,0 0.125992,-0.063 0.188988,-0.09449 0.063,-0.0315 0.132643,-0.05223 0.188988,-0.09449 0.07127,-0.05345 0.125992,-0.125992 0.188988,-0.188988 0.15749,-0.15749 0.314981,-0.31498 0.472471,-0.47247 0.0315,-0.0315 0.063,-0.063 0.09449,-0.09449 0.0315,-0.0315 0.063,-0.125993 0.09449,-0.0945 0.0315,0.0315 -0.139039,0.0945 -0.09449,0.0945 0.07043,0 0.125992,-0.125993 0.188988,-0.0945 0.223932,0.111967 0.188988,0.29413 0.188988,0.472471 0,0.05286 -0.01842,0.834454 0,0.94494 0.01638,0.09825 0.06829,0.187387 0.09449,0.283482 0.183304,0.672117 0.366769,1.39181 0.472471,2.078869 0.01437,0.0934 0,0.188988 0,0.283483 0.0315,0.15749 0.06809,0.314046 0.09449,0.47247 0.02336,0.140164 0,0.328792 0,0.47247 0,0.0315 -0.0099,0.06461 0,0.09449 0.02487,0.07462 0.0615,0.252734 0.188989,0.188988 0.03984,-0.01992 0.07457,-0.05465 0.09449,-0.09449 0.01408,-0.02817 -0.01622,-0.06749 0,-0.09449 0.08103,-0.135047 0.196123,-0.246936 0.283483,-0.377976 0.108728,-0.163091 0.15826,-0.382598 0.188986,-0.566964 0.0244,-0.146428 -0.03598,-0.328555 0,-0.472471 0.01709,-0.06833 0.04469,-0.23879 0.0945,-0.188988 0.328454,0.328455 -0.01159,0.301773 0.09449,0.566965 0.214495,0.536238 0.547171,0.940477 0.661458,1.511904 0.02471,0.123546 -0.01254,0.25261 0,0.377976 0.01908,0.190645 0.07334,0.376542 0.09449,0.566965 0.02135,0.192154 0,0.460564 0,0.661458 0,0.0315 0,0.063 0,0.09449 0,0.0315 0.0315,0.09449 0,0.09449 -0.0315,0 -0.0315,-0.09449 0,-0.09449 0.09529,0 0.06514,0.177061 0.188989,0.09449 0.316892,-0.21126 0.06255,-0.188988 0.283483,-0.188988 0.0315,0 0.06461,-0.01 0.09449,0 0.290084,0.09669 0.623782,0.544479 0.755952,0.755952 0.05279,0.08447 0.04612,0.196412 0.0945,0.283483 0.110305,0.198552 0.261114,0.372197 0.377976,0.566964 0.07247,0.120789 0.125992,0.251984 0.188986,0.377976 0.0945,0.188987 0.188989,0.377976 0.283483,0.566965 0.0315,0.063 0.07514,0.121267 0.09449,0.188987 0.337616,0.15036 0.04803,0.38109 0.0945,0.566965 0.02416,0.09663 0.07033,0.186851 0.09449,0.283482 0.01262,0.05047 -0.01619,0.1782 0,0.188987 0.08288,0.05525 0.194392,0.04995 0.283483,0.0945 0.03984,0.01992 0.05465,0.07457 0.09449,0.09449 0.05635,0.02817 0.188989,-0.063 0.188989,0 0,0.0315 -0.125992,0 -0.0945,0 0.063,0 0.129226,0.01992 0.18899,0 0.04226,-0.01408 0.05223,-0.08041 0.09449,-0.09449 0.05976,-0.01992 0.129225,0.01992 0.188989,0 0.04226,-0.01408 0.05743,-0.06979 0.09449,-0.0945 0.0586,-0.03907 0.122172,-0.07222 0.18899,-0.09449 0.08504,-0.02835 0.198437,0.02835 0.283482,0 0.04226,-0.01408 0.05223,-0.08041 0.09449,-0.09449 0.04326,-0.01442 0.419727,0 0.47247,0 0.0945,0 0.188989,0 0.283482,0 0.0315,0 0.09449,-0.0315 0.09449,0 0,0.0315 -0.06299,0 -0.09449,0 0.09449,0.063 0.194802,0.118042 0.283483,0.188987 0.06957,0.05566 0.144788,0.111638 0.188989,0.188989 0.08416,0.147273 0.125992,0.314981 0.188986,0.472469 0.262975,0.657434 0.135351,0.311555 0.377976,1.039434 0.063,0.18899 0.125992,0.377979 0.188989,0.566965 0.0315,0.09449 0.07812,0.185233 0.09449,0.283483 0.01553,0.09321 0,0.188989 0,0.283483 0,0.125991 0,0.251983 0,0.377975 0,0.09449 -0.01852,0.190823 0,0.283483 0.01381,0.06906 0.08291,0.119515 0.09449,0.188986 0.02072,0.12428 -0.03056,0.255747 0,0.377979 0.03417,0.136657 0.150291,0.242533 0.188989,0.377976 0.02596,0.09086 0,0.188986 0,0.283482 0,0.09449 0,0.188987 0,0.28348 0,0.260165 -0.01,-0.144296 0.09449,0.377979 0.02471,0.123544 0,0.251983 0,0.377975 0,0.0315 -0.0099,0.06461 0,0.09449 0.02228,0.06682 0.07222,0.122171 0.0945,0.188989 0.0099,0.02988 -0.01407,0.06632 0,0.09449 0.08603,0.172067 0.07168,0.05539 0.188987,0.09449 0.06682,0.02228 0.122171,0.07222 0.188989,0.09449 0.05976,0.01992 0.132641,-0.02817 0.188987,0 0.03984,0.01992 0.05465,0.07458 0.0945,0.0945 0.02817,0.01408 0.06299,0 0.09449,0 0.063,0 0.125992,0 0.188987,0 0.0945,0 0.188989,0 0.283482,0 0.0315,0 0.06632,0.01408 0.0945,0 0.552498,-0.276252 0.112197,-0.08415 0.377976,-0.283483 0.09085,-0.06814 0.203176,-0.108683 0.283482,-0.188989 0.02228,-0.02228 -0.02228,-0.07222 0,-0.09449 0.427419,-0.427419 0.194014,0.07941 0.377976,-0.472469 0.0315,-0.0945 0.07033,-0.186852 0.09449,-0.283483 0.0076,-0.03056 -0.01,-0.124375 0,-0.0945 0.07251,0.217543 0.116474,0.443918 0.188989,0.661458 0.05364,0.16092 0.163195,0.304822 0.188986,0.472472 0.03832,0.249055 -0.03564,0.5065 0,0.755952 0.02817,0.19721 0.145775,0.372499 0.18899,0.566965 0.0205,0.09224 -0.01043,0.189566 0,0.283482 0.02117,0.190424 0.0674,0.377293 0.09449,0.566963 0.0044,0.03118 -0.0062,0.06361 0,0.0945 0.02548,0.127346 0.07314,0.249872 0.09449,0.377975 0.02535,0.15208 -0.03482,0.427686 0,0.566965 0.01709,0.06833 0.07741,0.120658 0.0945,0.188987 0.01654,0.06621 0,0.532749 0,0.566965 0,0.0315 -0.02228,0.07222 0,0.09449 0.02228,0.02228 0.063,0 0.09449,0 0.0315,0 0.06632,0.01408 0.09449,0 0.03984,-0.01992 0.063,-0.06299 0.09449,-0.09449 0.129826,-0.129826 0.09746,-0.07754 0.188989,-0.283482 0.723046,-1.626852 -0.0365,-0.05424 0.472469,-0.944941 0.0052,-0.009 0.153811,-0.407633 0.283483,-0.472469 0.02817,-0.01408 0.116768,-0.02228 0.0945,0 -0.0498,0.0498 -0.251987,0.06299 -0.18899,0.09449 0.357156,0.178578 0.316297,-0.156173 0.566966,0.09449 0.142613,0.142613 0.246721,0.319339 0.377975,0.472472 0.355225,0.41443 0.03853,-0.08395 0.472469,0.566962 0.03907,0.05861 0.04469,0.139187 0.0945,0.18899 0.0803,0.0803 0.203177,0.108682 0.28348,0.188989 0.0024,0.0024 0.560835,0.748596 0.566965,0.755951 0.05703,0.06844 0.133334,0.11942 0.18899,0.188987 0.240098,0.11303 0.156704,0.397931 0.283482,0.566965 0.04226,0.05635 0.132641,0.05224 0.188987,0.09449 0.07127,0.05346 0.125992,0.125995 0.188989,0.18899 0.15749,0.15749 0.338836,0.29429 0.472469,0.472469 0.01889,0.02519 -0.02228,0.07222 0,0.0945 0.02228,0.02228 0.06461,-0.0099 0.09449,0 0.06682,0.02228 0.123595,0.06834 0.188989,0.09449 0.293397,0.117358 0.366499,0.09449 0.661459,0.09449 0.09449,0 0.188989,0 0.283482,0 0.0315,0 0.06632,0.01408 0.09449,0 0.03984,-0.01992 0.05224,-0.08041 0.09449,-0.09449 0.05976,-0.01992 0.130498,0.02339 0.188989,0 0.881338,-0.587558 -0.132641,0.01273 0.472469,-0.188989 0.04226,-0.01408 0.063,-0.125992 0.0945,-0.09449 0.0315,0.0315 -0.063,0.125992 -0.0945,0.09449 -0.0498,-0.0498 0.125995,-0.125992 0.188989,-0.09449 0.03984,0.01992 0.05743,0.06979 0.09449,0.09449 0.0586,0.03907 0.139186,0.04469 0.188989,0.0945 0.02228,0.02228 -0.01969,0.0699 0,0.09449 0.111308,0.139136 0.27441,0.232987 0.377976,0.377976 0.05789,0.08105 0.05526,0.191931 0.09449,0.283482 0.11098,0.258948 0.288888,0.488683 0.377976,0.755952 0.0945,0.283482 -0.04725,0.0945 0,0.283482 0.104455,0.41782 0.0945,0.150847 0.0945,0.377976 0,0.03736 -0.02019,0.432115 0,0.472472 0.04325,0.08649 0.214426,0.165968 0.283482,0.188986 0.02988,0.01 0.07222,-0.02228 0.09449,0 0.02228,0.02228 -0.02817,0.08041 0,0.0945 0.08452,0.04226 0.188986,0 0.283482,0 0.0315,0 0.07222,-0.02228 0.09449,0 0.02228,0.02228 -0.0315,0.09449 0,0.09449 0.0996,0 0.18899,-0.063 0.283483,-0.09449 0.09449,-0.0315 0.188986,-0.063 0.283482,-0.0945 0.09449,-0.0315 0.194392,-0.04995 0.283483,-0.09449 0.03984,-0.01992 0.05743,-0.06978 0.09449,-0.09449 0.205359,-0.136906 0.417698,-0.154078 0.566965,-0.377976 0.01746,-0.02622 -0.01,-0.06461 0,-0.0945 0.02228,-0.06681 0.07222,-0.122169 0.09449,-0.188986 0.01,-0.02988 -0.01889,-0.0693 0,-0.0945 0.08018,-0.106908 0.188986,-0.188987 0.283482,-0.28348 0.063,-0.063 0.114861,-0.139571 0.188987,-0.188989 0.02622,-0.01746 0.07222,0.02228 0.0945,0 0.02228,-0.02228 -0.02228,-0.07222 0,-0.09449 0.04454,-0.04454 0.132641,0.02817 0.188986,0 0.03984,-0.01992 0.063,-0.063 0.09449,-0.0945 0.063,0 0.129226,0.01992 0.18899,0 0.04226,-0.01408 0.063,-0.06299 0.09449,-0.09449 0.0945,-0.09449 0.197932,-0.180822 0.283483,-0.283483 0.09845,-0.118139 0.441735,-0.700627 0.472471,-0.755951 0.06841,-0.123137 0.108207,-0.262575 0.188987,-0.377976 0.141076,-0.201538 0.324866,-0.370157 0.472472,-0.566965 0.04226,-0.05635 0.06299,-0.125992 0.09449,-0.188987 0.063,-0.125991 0.11085,-0.26077 0.188986,-0.377978 0.04942,-0.07413 0.133335,-0.11942 0.18899,-0.188987 0.07094,-0.08868 0.118044,-0.194802 0.188989,-0.283482 0.111307,-0.139134 0.286303,-0.22519 0.377976,-0.377976 0.07622,-0.127042 0.07172,-0.377976 0.188986,-0.377976 0.164685,0 0.06061,0.132514 0.0945,0.188987 0.08103,0.135048 0.200012,0.244425 0.28348,0.377976 0.07466,0.119454 0.125995,0.251986 0.188989,0.377978 0.499124,0.998247 0.136009,0.2052 0.377976,0.850445 0.05956,0.158821 0.155723,0.306141 0.188989,0.472472 0.03088,0.154432 -0.05382,0.324461 0,0.472469 0.07762,0.21346 0.267669,0.368411 0.377976,0.566965 0.04837,0.08707 0.04995,0.194392 0.09449,0.283482 0.08214,0.164272 0.186143,0.316723 0.283483,0.47247 0.06019,0.09631 0.142864,0.179702 0.188989,0.283482 0.08091,0.182041 0.115001,0.382 0.188987,0.566965 0.0782,0.195503 0.205279,0.371459 0.283482,0.566962 0.03699,0.09248 0.04508,0.197001 0.09449,0.283483 -0.463357,1.144447 0.27914,0.229722 0.377975,0.377976 0.4092,0.613796 -0.0019,0.08887 0.0945,0.377976 0.07072,0.212153 0.17566,0.256825 0.283483,0.472471 0.01408,0.02817 -0.02228,0.07222 0,0.09449 0.02228,0.02228 0.07222,-0.02228 0.09449,0 0.02228,0.02228 -0.02228,0.07222 0,0.09449 0.03115,0.03115 0.309594,-0.02278 0.377976,0 0.04226,0.01408 0.05223,0.08041 0.09449,0.0945 0.08965,0.02988 0.188989,0 0.283483,0 0.699844,0 0.660339,-0.187868 1.228423,-0.755954 0.286732,-0.286732 0.299842,-0.275133 0.566965,-0.755952 0.04837,-0.08707 0.063,-0.188987 0.09449,-0.283483 0.157491,-0.188986 0.336011,-0.362272 0.47247,-0.566962 0.05525,-0.08288 0.04612,-0.196413 0.0945,-0.283482 0.110305,-0.198554 0.276397,-0.36381 0.377976,-0.566965 0.02817,-0.05635 -0.02339,-0.130498 0,-0.18899 0.04218,-0.105444 0.138197,-0.181903 0.188987,-0.28348 0.01408,-0.02817 -0.01746,-0.06829 0,-0.0945 0.111876,-0.167812 0.266102,-0.304657 0.377976,-0.472469 0.0044,-0.0065 0.300651,-0.642127 0.377978,-0.661458 0.08643,-0.02162 0.125992,0.125992 0.188987,0.188987 0.371758,0.371758 0.118496,0.0717 0.472471,0.850447 0.164227,0.361302 0.253498,0.463206 0.47247,0.944941 0.799441,1.75877 -0.882719,-1.670944 0.661458,1.41741 0.063,0.125992 0.147563,0.243343 0.188989,0.377976 0.0854,0.277556 0.112578,0.570283 0.188987,0.850447 0.01852,0.06795 0.05955,0.127836 0.09449,0.188987 0.09112,0.159467 0.201348,0.308197 0.283482,0.472472 0.01408,0.02817 -0.01889,0.06929 0,0.09449 0.08018,0.106907 0.200002,0.179131 0.283483,0.283482 0.27278,0.340977 0.02106,0.06319 0.09449,0.283483 0.02228,0.06682 0.08068,0.119925 0.0945,0.188987 0.01852,0.09266 -0.01553,0.190275 0,0.283482 0.01638,0.09825 0.063,0.188989 0.09449,0.283483 0.063,0.188989 0.115003,0.382002 0.188989,0.566965 0.05231,0.130788 0.150288,0.242533 0.188986,0.377975 0.02596,0.09086 -0.01852,0.190823 0,0.283483 0.01381,0.06906 0.063,0.125992 0.09449,0.188987 0.135218,0.270435 0.213963,0.383381 0.283482,0.661458 0.02952,0.118075 -0.03725,0.681463 0,0.755954 0.0315,0.063 0.139187,0.04469 0.188989,0.09449 0.02228,0.02228 -0.02228,0.07222 0,0.09449 5.3e-4,5.29e-4 0.279845,-7.94e-4 0.283483,0 0.09767,0.01953 0.186849,0.07034 0.283482,0.0945 0.03056,0.0076 0.063,0 0.09449,0 0.09449,0 0.188986,0 0.283482,0 0.221446,0 0.463071,0.03776 0.661459,-0.0945 0.755951,-0.503968 0.042,-0.125992 0.377975,-0.377976 0.872324,-0.581549 0.127437,0.02861 0.283483,-0.283483 0.01992,-0.03984 0.063,-0.06299 0.09449,-0.09449 0.09449,-0.09449 0.214728,-0.168891 0.283483,-0.283482 0.03241,-0.05402 -0.02559,-0.131422 0,-0.188987 0.103137,-0.232058 0.247322,-0.443704 0.377975,-0.661458 0.05843,-0.09739 0.142865,-0.179703 0.18899,-0.283483 0.08091,-0.182041 0.125992,-0.377976 0.188986,-0.566965 0.0315,-0.09449 0.07496,-0.185811 0.09449,-0.283482 0.01852,-0.09266 0,-0.188987 0,-0.283483 0,-0.117025 -0.0099,-0.30834 0.0945,-0.377976 0.08564,-0.05709 0.229745,0.153165 0.283482,0.188989 0.152815,0.101878 0.313005,0.192361 0.472469,0.283483 0.06115,0.03494 0.132644,0.05223 0.188989,0.09449 0.07127,0.05345 0.114861,0.139571 0.188987,0.188987 0.0066,0.0044 0.355851,0.0055 0.377976,0 0.09663,-0.02416 0.198072,-0.04325 0.283482,-0.09449 0.07639,-0.04584 0.125992,-0.125992 0.188989,-0.188987 0.125992,-0.125992 0.251984,-0.251984 0.377976,-0.377978 0.0315,-0.0315 0.06777,-0.05886 0.09449,-0.09449 0.01423,-0.01897 0.197532,-0.335002 0.283482,-0.377976 0.08909,-0.04454 0.194392,-0.04995 0.283483,-0.09449 0.03984,-0.01992 0.05223,-0.08041 0.09449,-0.0945 0.154696,-0.05156 0.340937,0.06161 0.472472,0.0945 0.03056,0.0076 0.06748,-0.01622 0.09449,0 0.258508,0.155104 0.310483,0.21599 0.472469,0.377976 0.0945,0.09449 0.176575,0.203301 0.283483,0.283482 0.0504,0.0378 0.144444,-0.04454 0.188989,0 0.02228,0.02228 -0.02228,0.07222 0,0.09449 0.02228,0.02228 0.06299,0 0.09449,0 0.26561,0 0.237646,0.01527 0.566965,-0.09449 0.133633,-0.04454 0.241319,-0.154823 0.377976,-0.188989 0.06112,-0.01527 0.125992,0 0.188986,0 0.32973,0 0.443392,-0.04543 0.755955,0.188989 0.21595,0.161963 1.010023,1.094714 1.039434,1.133928 0.08452,0.112691 0.104471,0.265287 0.188986,0.377976 0.200899,0.267864 0.447109,0.498731 0.661459,0.755954 0.100825,0.120986 0.21305,0.237112 0.283482,0.377976 0.600594,0.360333 0.348367,1.020056 0.566965,1.511903 0.07598,0.170958 0.346044,0.566312 0.472469,0.755954 0.063,0.09449 0.130559,0.186098 0.18899,0.283483 0.03624,0.06039 0.05223,0.132641 0.09449,0.188986 0.05345,0.07127 0.13957,0.114861 0.188989,0.18899 0.05661,0.08491 -0.09552,0.188473 0.09449,0.283482 0.128487,0.06424 0.512141,0.15422 0.661459,0.09449 0.08272,-0.03309 0.113826,-0.141157 0.188989,-0.188989 2.040242,-1.298337 0.315669,-0.02817 1.039434,-0.661458 0.18514,-0.161997 0.374864,-0.318791 0.566965,-0.472469 0.122979,-0.09838 0.261443,-0.177544 0.377976,-0.283483 0.230725,-0.209748 0.4543,-0.428405 0.661458,-0.661458 0.04679,-0.05264 0.0505,-0.13399 0.09449,-0.188989 0.08348,-0.104349 0.200001,-0.179131 0.283482,-0.283483 0.044,-0.055 0.04469,-0.139184 0.09449,-0.188986 0.111364,-0.111364 0.254998,-0.1851 0.377976,-0.283483 0.139137,-0.111307 0.251984,-0.251984 0.377976,-0.377976 0.157491,-0.15749 0.338836,-0.29429 0.472472,-0.472471 0.202967,-0.270622 -0.309311,0.113866 0.09449,-0.188987 0.476814,-0.357611 0.109667,-0.01516 0.472472,-0.377976 0.03811,-0.03812 0.105563,-0.150111 0.188986,-0.0945 0.07413,0.04942 0.135536,0.117719 0.18899,0.188989 0.607957,0.81061 0.182229,0.285396 0.566962,0.944941 0.149728,0.256673 0.330179,0.495083 0.472472,0.755952 0.0477,0.08745 0.05404,0.192463 0.09449,0.283482 0.08581,0.193085 0.209291,0.369123 0.283483,0.566965 0.02212,0.05898 -0.03494,0.136573 0,0.188987 0.03907,0.0586 0.125992,0.063 0.188989,0.0945 0.06299,0.125992 0.13667,0.247187 0.188986,0.377976 0.0117,0.02924 -0.01619,0.121502 0,0.09449 0.108712,-0.181184 0.18899,-0.377976 0.283483,-0.566962"
       id="path1133"
       inkscape:connector-curvature="0" />
    <path
       style="fill:none;stroke:#000000;stroke-width:0.26458332px;stroke-linecap:butt;stroke-linejoin:miter;stroke-opacity:1"
       d="m 87.312499,57.552084 v 2.645833"
       id="path1135"
       inkscape:connector-curvature="0" />
    <path
       style="fill:none;stroke:#000000;stroke-width:0.26458332px;stroke-linecap:butt;stroke-linejoin:miter;stroke-opacity:1"
       d="m 63.499999,57.552084 v 2.645833"
       id="path1137"
       inkscape:connector-curvature="0" />
    <path
       style="fill:none;stroke:#000000;stroke-width:0.265;stroke-linecap:butt;stroke-linejoin:miter;stroke-opacity:1;stroke-miterlimit:4;stroke-dasharray:0.53, 0.26500000000000001;stroke-dashoffset:0;opacity:1"
       d="M 87.3125,49.614583 H 63.5"
       id="path1139"
       inkscape:connector-curvature="0"
       sodipodi:nodetypes="cc" />
    <path
       style="fill:none;stroke:#000000;stroke-width:0.26458332px;stroke-linecap:butt;stroke-linejoin:miter;stroke-opacity:1"
       d="m 39.6875,57.552084 v 2.645833"
       id="path1141"
       inkscape:connector-curvature="0" />
    <path
       style="fill:none;stroke:#000000;stroke-width:0.265;stroke-linecap:butt;stroke-linejoin:miter;stroke-miterlimit:4;stroke-dasharray:0.53, 0.26500000000000001;stroke-opacity:1;stroke-dashoffset:0;opacity:1"
       d="m 63.5,43 -23.8125,10e-7"
       id="path1143"
       inkscape:connector-curvature="0"
       sodipodi:nodetypes="cc" />
    <path
       style="fill:none;stroke:#000000;stroke-width:0.26458332px;stroke-linecap:butt;stroke-linejoin:miter;stroke-opacity:1"
       d="M 22.489583,43.000001 H 19.84375"
       id="path1145"
       inkscape:connector-curvature="0" />
    <path
       style="opacity:0.068;fill:#000000;fill-opacity:1;stroke:none;stroke-width:0.35770527;stroke-miterlimit:4;stroke-dasharray:none;stroke-dashoffset:0;stroke-opacity:1"
       d="m 150.65105,181.22941 c 0,-34.3435 0.077,-40.71429 0.49198,-40.71429 0.27058,0 1.24523,0.92411 2.16589,2.05357 1.90016,2.33112 4.29248,5.13343 5.43942,6.37161 0.42673,0.46067 0.8675,1.1263 0.9795,1.47917 0.11199,0.35286 1.19608,1.59983 2.40907,2.77104 2.19384,2.11825 2.21817,2.13018 4.62096,2.26595 1.72466,0.0975 2.89033,-0.0448 4.0757,-0.49754 l 1.6602,-0.63404 0.86443,1.04155 c 1.55702,1.87604 2.62504,4.38494 2.86542,6.73118 0.12807,1.25005 0.33288,2.41355 0.45514,2.58555 0.53432,0.75173 2.25548,1.54559 3.33473,1.53809 1.82078,-0.0127 5.7184,-2.10351 6.30951,-3.3847 0.7387,-1.60107 1.49462,-2.34659 3.07805,-3.03571 1.6922,-0.73646 2.43289,-1.51146 4.10715,-4.29744 2.18039,-3.62819 3.34529,-5.34143 5.14545,-7.56754 1.65139,-2.04214 1.7818,-2.1282 2.25833,-1.49044 0.98533,1.3187 2.65787,5.25817 2.92293,6.88461 0.14797,0.90802 1.09037,3.12067 2.09665,4.92275 2.80443,5.02222 3.69756,7.36276 3.43533,9.00267 -0.24944,1.5599 0.17651,2.06675 1.2528,1.49074 0.58056,-0.3107 0.73865,-0.23853 0.94169,0.42992 0.3863,1.27175 1.88948,3.0789 2.573,3.0933 0.3431,0.007 0.94525,0.0459 1.3381,0.0859 2.29026,0.23348 3.09978,-0.0747 5.05572,-1.92452 1.08748,-1.0285 2.39737,-2.59546 2.91086,-3.48214 0.5135,-0.88668 1.38198,-2.23894 1.92995,-3.00502 0.54798,-0.76608 0.99633,-1.5443 0.99633,-1.72938 0,-0.18508 0.32143,-0.74514 0.71429,-1.24458 0.39285,-0.49944 0.71428,-1.11746 0.71428,-1.37339 0,-0.25593 0.67036,-1.51682 1.48969,-2.80198 0.99617,-1.56255 1.61899,-2.22936 1.87999,-2.01275 0.21466,0.17816 1.00694,1.66162 1.76061,3.29658 0.75368,1.63496 2.139,4.5798 3.07851,6.54408 0.9395,1.96429 1.90373,4.41568 2.14272,5.44753 0.239,1.03186 0.5791,1.96545 0.7558,2.07465 0.18525,0.1145 0.32125,10.69746 0.32125,24.9989 v 24.80035 h -44.28571 -44.28572 z"
       id="path1177"
       inkscape:connector-curvature="0"
       transform="scale(0.26458333)" />
    <path
       style="opacity:0.235;fill:#000000;fill-opacity:1;stroke:none;stroke-width:0.35770527;stroke-miterlimit:4;stroke-dasharray:none;stroke-dashoffset:0;stroke-opacity:1"
       d="m 240.65652,198.46155 c 0.004,-15.29252 0.12621,-23.29531 0.35168,-22.94643 0.19041,0.29464 0.35248,0.9375 0.36015,1.42857 0.008,0.49107 0.41117,1.85715 0.89667,3.03572 0.4855,1.17857 0.88892,2.38393 0.8965,2.67857 0.008,0.29464 0.32429,1.17857 0.70382,1.96428 0.37953,0.78572 0.69796,2.15179 0.70764,3.03572 0.01,0.88393 0.14696,1.81097 0.30508,2.0601 0.43972,0.69277 2.47887,1.15418 5.10075,1.15418 2.20846,0 2.46022,-0.0843 3.73286,-1.25 0.75058,-0.6875 1.47525,-1.25 1.61038,-1.25 0.13513,0 0.34013,-0.28125 0.45555,-0.625 0.11542,-0.34375 0.34731,-0.86607 0.51531,-1.16071 2.40258,-4.21372 3.33655,-6.29338 3.55381,-7.91318 0.10125,-0.75489 0.26016,-1.37253 0.35314,-1.37253 0.093,0 0.88343,0.48214 1.75659,1.07142 1.15329,0.77835 2.00776,1.07143 3.1237,1.07143 1.42736,0 1.69164,-0.1644 3.73173,-2.32143 1.20758,-1.27678 2.39665,-2.33993 2.64238,-2.36255 1.23285,-0.11348 1.98866,0.20983 3.18153,1.36095 1.59774,1.54182 3.85177,1.95626 5.67982,1.04431 1.94902,-0.9723 2.70848,-0.75008 5.04167,1.47515 1.18426,1.12947 2.3992,2.53572 2.69987,3.125 0.50686,0.99341 1.85848,2.64275 4.43168,5.40786 0.74927,0.80516 1.13771,1.69634 1.37508,3.15481 0.18196,1.11797 0.7167,2.70229 1.18832,3.52072 3.12592,5.42454 3.24118,5.57276 4.63915,5.96602 1.26081,0.35468 1.49907,0.293 3.21428,-0.83216 1.0189,-0.66837 2.14285,-1.37179 2.49768,-1.56313 0.35482,-0.19135 1.3164,-0.89895 2.13683,-1.57244 1.50007,-1.23141 2.41661,-2.13682 9.65828,-9.54116 4.44367,-4.54348 4.23069,-4.50316 6.06215,-1.14766 0.48246,0.88393 1.4551,2.65178 2.16143,3.92857 0.70632,1.27679 1.28788,2.60425 1.29234,2.94992 0.004,0.34568 0.32954,0.90372 0.7224,1.24009 0.39286,0.33638 0.71428,0.79975 0.71428,1.02972 0,0.22998 0.24108,0.51064 0.53572,0.62371 0.46302,0.17768 0.53571,2.02437 0.53571,13.60964 v 13.40406 h -44.28571 -44.28572 z"
       id="path1179"
       inkscape:connector-curvature="0"
       transform="scale(0.26458333)" />
    <path
       style="fill:none;stroke:#000000;stroke-width:0.26458332px;stroke-linecap:butt;stroke-linejoin:miter;stroke-opacity:1"
       d="M 22.489583,49.614584 H 19.84375"
       id="path1181"
       inkscape:connector-curvature="0" />
    <path
       style="fill:none;stroke:url(#linearGradient1199);stroke-width:0.26458332;stroke-linecap:butt;stroke-linejoin:miter;stroke-opacity:1;stroke-miterlimit:4;stroke-dasharray:0.26458332, 0.26458332000000001;stroke-dashoffset:0"
       d="M 63.499999,58.875001 63.5,23.15625"
       id="path1183"
       inkscape:connector-curvature="0"
       sodipodi:nodetypes="cc" />
    <path
       style="fill:none;stroke:url(#linearGradient1197);stroke-width:0.26458332;stroke-linecap:butt;stroke-linejoin:miter;stroke-opacity:1;stroke-miterlimit:4;stroke-dasharray:0.26458332, 0.26458332000000001;stroke-dashoffset:0"
       d="M 87.312499,58.875001 87.3125,23.15625"
       id="path1185"
       inkscape:connector-curvature="0"
       sodipodi:nodetypes="cc" />
    <path
       style="fill:none;stroke:url(#linearGradient1195);stroke-width:0.26458332;stroke-linecap:butt;stroke-linejoin:miter;stroke-opacity:1;stroke-miterlimit:4;stroke-dasharray:0.26458332, 0.26458332000000001;stroke-dashoffset:0"
       d="m 39.6875,58.875001 0,-35.718751"
       id="path1187"
       inkscape:connector-curvature="0"
       sodipodi:nodetypes="cc" />
    <text
       xml:space="preserve"
       style="font-style:normal;font-weight:normal;font-size:2.82222223px;line-height:1.25;font-family:sans-serif;letter-spacing:0px;word-spacing:0px;fill:#000000;fill-opacity:1;stroke:none;stroke-width:0.26458332"
       x="10.824416"
       y="50.042957"
       id="text1203"><tspan
         sodipodi:role="line"
         id="tspan1201"
         x="10.824416"
         y="50.042957"
         style="stroke-width:0.26458332">$\text{ma}_1$</tspan></text>
    <text
       xml:space="preserve"
       style="font-style:normal;font-weight:normal;font-size:2.82222223px;line-height:1.25;font-family:sans-serif;letter-spacing:0px;word-spacing:0px;fill:#000000;fill-opacity:1;stroke:none;stroke-width:0.26458332"
       x="11.091684"
       y="44.163025"
       id="text1207"><tspan
         sodipodi:role="line"
         id="tspan1205"
         x="11.091684"
         y="44.163025"
         style="stroke-width:0.26458332">$\text{ma}_2$</tspan></text>
    <text
       xml:space="preserve"
       style="font-style:normal;font-weight:normal;font-size:2.82222223px;line-height:1.25;font-family:sans-serif;letter-spacing:0px;word-spacing:0px;fill:#000000;fill-opacity:1;stroke:none;stroke-width:0.26458332"
       x="86.060791"
       y="64.341873"
       id="text1211"><tspan
         sodipodi:role="line"
         id="tspan1209"
         x="86.060791"
         y="64.341873"
         style="stroke-width:0.26458332">$i$</tspan></text>
    <text
       xml:space="preserve"
       style="font-style:normal;font-weight:normal;font-size:2.82222223px;line-height:1.25;font-family:sans-serif;letter-spacing:0px;word-spacing:0px;fill:#000000;fill-opacity:1;stroke:none;stroke-width:0.26458332"
       x="62.2738"
       y="63.940971"
       id="text1215"><tspan
         sodipodi:role="line"
         id="tspan1213"
         x="62.2738"
         y="63.940971"
         style="stroke-width:0.26458332">$i-n$</tspan></text>
    <text
       xml:space="preserve"
       style="font-style:normal;font-weight:normal;font-size:2.82222223px;line-height:1.25;font-family:sans-serif;letter-spacing:0px;word-spacing:0px;fill:#000000;fill-opacity:1;stroke:none;stroke-width:0.26458332"
       x="38.887718"
       y="63.807335"
       id="text1219"><tspan
         sodipodi:role="line"
         id="tspan1217"
         x="38.887718"
         y="63.807335"
         style="stroke-width:0.26458332">$i-2n$</tspan></text>
    <text
       xml:space="preserve"
       style="font-style:normal;font-weight:normal;font-size:2.82222223px;line-height:1.25;font-family:sans-serif;letter-spacing:0px;word-spacing:0px;fill:#000000;fill-opacity:1;stroke:none;stroke-width:0.26458332"
       x="98.756088"
       y="59.798294"
       id="text1223"><tspan
         sodipodi:role="line"
         id="tspan1221"
         x="98.756088"
         y="59.798294"
         style="stroke-width:0.26458332">Iteration</tspan></text>
    <text
       xml:space="preserve"
       style="font-style:normal;font-weight:normal;font-size:2.82222223px;line-height:1.25;font-family:sans-serif;letter-spacing:0px;word-spacing:0px;fill:#000000;fill-opacity:1;stroke:none;stroke-width:0.26458332"
       x="14.298921"
       y="10.88797"
       id="text1227"><tspan
         sodipodi:role="line"
         id="tspan1225"
         x="14.298921"
         y="10.88797"
         style="stroke-width:0.26458332">Energy $E$</tspan></text>
  </g>
</svg>
